Plot:

Agent J travels in time to MIB's early years in the 1960s, to stop an alien from assassinating his friend Agent K and changing history.


Director:
Barry Sonnenfeld

Writers:
Lowell Cunningham (comic), David Koepp (screenplay)

Stars:
Will Smith, Tommy Lee Jones and Josh Brolin

Genres:
Action | Comedy | Sci-Fi


Country:
USA

Language:
English


Format : AVI
Format/Info : Audio Video Interleave
File size : 695 MiB
Duration : 1h 45mn
Overall bit rate : 918 Kbps
Writing application : Lavf54.21.100

Video
ID : 0
Format : MPEG-4 Visual
Format profile : Simple@L3
Format settings, BVOP : No
Format settings, QPel : No
Format settings, GMC : No warppoints
Format settings, Matrix : Default (H.263)
Codec ID : XVID
Codec ID/Hint : XviD
Duration : 1h 45mn
Bit rate : 778 Kbps
Width : 640 pixels
Height : 320 pixels
Display aspect ratio : 1.85:1
Frame rate : 23.976 fps
Color space : YUV
Chroma subsampling : 4:2:0
Bit depth : 8 bits
Scan type : Progressive
Compression mode : Lossy
Bits/(Pixel*Frame) : 0.159
Stream size : 589 MiB (85%)
Writing library : XviD 64

Audio
ID : 1
Format : MPEG Audio
Format version : Version 1
Format profile : Layer 3
Codec ID : 55
Codec ID/Hint : MP3
Duration : 1h 45mn
Bit rate mode : Constant
Bit rate : 128 Kbps
Channel(s) : 2 channels
Sampling rate : 44.1 KHz
Compression mode : Lossy
Stream size : 96.9 MiB (14%)
Alignment : Aligned on interleaves
Interleave, duration : 26 ms (0.63 video frame)
Interleave, preload duration : 26 ms
Writing library : LAME3.99.5

SCREENS:


SEED AND HAVE FUN!!!